<svg width="982" height="1026" viewBox="0 0 982 1026" fill="none" xmlns="http://www.w3.org/2000/svg">
<mask id="mask0" mask-type="alpha" maskUnits="userSpaceOnUse" x="0" y="0" width="982" height="1026">
<ellipse cx="491" cy="513" rx="491" ry="513" fill="#FE7575"/>
</mask>
<g mask="url(#mask0)">
<path d="M549.502 606.825C549.502 606.825 541.436 605.701 541.436 593.972C541.436 582.244 535.663 560.339 535.663 560.339C535.663 560.237 530.668 522.19 523.769 516.141C516.87 510.093 508.006 474.579 508.006 474.579C508.006 474.579 506.491 455.311 503.4 451.163C500.308 447.015 496.132 436.859 489.97 422.372C483.808 407.885 458.116 397.852 458.116 397.852C458.116 397.852 411.665 370.961 398.501 362.195C397.305 361.475 396.187 360.633 395.165 359.682C392.872 356.678 382.881 356.617 382.881 356.617C381.837 350.037 380.834 342.477 380.507 335.632C380.507 334.896 380.507 334.161 380.404 333.425C395.082 324.765 406.138 311.111 411.542 294.969C411.788 294.193 411.992 293.375 412.218 292.599C413.097 292.31 413.907 291.841 414.594 291.221C415.281 290.602 415.832 289.846 416.21 289.003C417.397 286.367 417.418 283.281 418.892 280.829C420.611 277.928 423.887 276.375 426.466 274.188C432.976 268.671 434.655 259.374 434.348 250.915C434.143 244.069 433.038 237.163 433.468 230.358L433.59 228.642C433.713 227.62 433.857 226.599 434.041 225.618C435.044 220.55 437.234 215.769 438.463 210.742C439.691 205.716 439.814 200.056 436.948 195.724C432.751 189.369 424.01 188.102 416.333 187.448C407.632 186.713 399.853 187.673 394.284 180.46C391.678 176.69 388.746 173.155 385.522 169.896C384.376 168.833 373.239 162.049 373.239 161.6C362.37 156.575 350.049 155.632 338.539 158.943C332.766 160.619 327.321 163.357 321.466 164.726C308.834 167.709 294.299 164.481 283.572 171.694C277.594 175.781 274.012 182.278 270.654 188.613C267.925 193.83 265.154 199.041 262.343 204.244C257.818 212.806 253.212 221.511 251.308 230.992C250.908 233.055 250.662 235.145 250.571 237.245V237.347C250.571 238.103 250.571 238.859 250.571 239.615V240.575C250.571 241.29 250.571 241.985 250.694 242.619C250.817 243.252 250.797 243.456 250.858 243.885C250.919 244.315 251.022 245.275 251.145 245.929C251.267 246.583 251.513 247.727 251.759 248.626C251.861 249.014 252.004 249.382 252.127 249.75C252.332 250.445 252.578 251.119 252.844 251.793C252.987 252.141 253.13 252.508 253.294 252.856C253.601 253.571 253.97 254.266 254.338 254.899C254.502 255.185 254.625 255.451 254.789 255.716C255.36 256.667 255.989 257.581 256.672 258.455C261.053 263.91 267.502 267.384 272.272 272.492C272.272 272.697 272.272 272.901 272.272 273.085C272.272 273.657 272.272 274.209 272.272 274.781C272.525 286.174 275.563 297.332 281.122 307.286C286.68 317.239 294.591 325.687 304.167 331.892C304.167 332.669 304.269 333.466 304.31 334.242C304.709 340.308 304.634 346.395 304.085 352.449C303.251 351.469 302.208 350.688 301.031 350.165C299.855 349.641 298.576 349.388 297.288 349.424C296.409 349.382 295.527 349.457 294.668 349.649L294.484 349.506V349.69C289.98 350.793 284.432 355.473 279.13 368.775C279.13 368.775 262.998 386.92 250.715 386.164C238.432 385.408 207.335 405.044 207.335 405.044C207.335 405.044 176.995 424.701 170.485 444.726C166.846 456.081 162.484 467.193 157.424 477.992L119.92 555.128L113 616.327C113 616.327 116.828 643.544 116.071 647.692C115.313 651.84 131.814 689.254 131.814 689.254C131.814 689.254 186.33 784.862 208.604 789.766L210.201 788.642C211.154 789.139 212.164 789.517 213.21 789.766L217.796 786.538C218.071 790.136 217.954 793.753 217.448 797.326C214.377 806.767 218.594 868.374 223.958 880.45C229.322 892.526 227.418 1050.87 227.418 1050.87L226.66 1064.84C226.66 1064.84 226.66 1065.29 226.844 1066.07L226.66 1069.38L227.213 1069.66C227.787 1074.1 227.6 1078.6 226.66 1082.97C224.736 1089.1 223.958 1106.42 223.958 1106.42C223.958 1106.42 208.624 1204.26 215.892 1223.92C223.159 1243.57 229.342 1265.11 229.342 1265.11C229.342 1265.11 237.019 1289.63 229.71 1293.82C222.402 1298.01 201.623 1305.04 205.902 1315.25C209.791 1324.69 224.552 1349.99 226.742 1353.69L226.558 1355.63L223.548 1388.18C224.036 1392.48 225.203 1396.67 227.008 1400.6C230.304 1407.7 236.712 1415.05 248.893 1414.25C250.94 1414.11 253.315 1413.87 255.607 1413.56C277.901 1410.58 305.354 1400.65 305.354 1400.65C303.929 1399.74 302.622 1398.66 301.465 1397.44C300.369 1396.38 299.501 1395.11 298.913 1393.7C298.325 1392.3 298.03 1390.79 298.046 1389.26C298.373 1383.34 287.257 1355.1 284.493 1348.15C284.063 1347.15 283.838 1346.58 283.838 1346.58C283.838 1346.58 309.183 1320.14 304.965 1296.7C304.965 1296.7 276.919 1280.35 286.152 1271.38C295.384 1262.41 311.885 1236.65 311.885 1236.65C311.885 1236.65 312.642 1140.3 311.885 1125.92C311.095 1115.93 311.569 1105.89 313.297 1096.02C313.604 1094.53 313.973 1093.08 314.362 1091.65C327.131 1093.55 340.021 1094.53 352.931 1094.57C357.64 1094.57 362.43 1094.57 367.261 1094.29C367.261 1095.65 367.323 1097.12 367.446 1098.7C368.51 1122.57 370.496 1164.41 372.113 1179.96C374.406 1202.26 387.078 1262.33 387.078 1262.33C387.078 1262.33 362.901 1277.82 391.295 1315.99C391.295 1315.99 391.295 1329.82 389.412 1331.83C387.401 1338.37 385.781 1345.03 384.56 1351.77C383.373 1358.96 382.881 1366.24 384.806 1370.02C389.412 1379.05 417.049 1378.31 417.049 1378.31L417.725 1378.19C422.942 1377.65 428.215 1378.15 433.237 1379.66C438.259 1381.18 442.93 1383.67 446.979 1387C457.481 1395.41 497.34 1391.72 518.917 1389.04C527.372 1387.98 533.023 1387 533.023 1387C533.296 1386.04 533.394 1385.04 533.309 1384.05C533.084 1378.76 528.928 1367.16 500.759 1356.8C500.759 1356.8 474.268 1339.02 474.637 1323.53H474.084H471.013C473.244 1323.41 474.678 1323.53 474.678 1323.53C474.678 1323.53 464.298 1285.73 468.536 1282.66C472.774 1279.6 460.081 1237.71 460.081 1237.71C460.081 1237.71 452.814 1167.42 452.425 1162.49C452.441 1158.27 453.082 1154.07 454.328 1150.03L452.425 1111.49C452.425 1111.49 452.056 1098.68 452.425 1094.51C452.363 1090.89 452.068 1087.28 451.544 1083.7C451.36 1082.27 451.176 1080.78 450.971 1079.31C460.9 1076.8 467.349 1074.47 467.349 1074.47L466.202 940.32C474.637 923.973 476.192 888.112 476.152 862.673C476.152 846.326 475.414 834.229 475.414 834.229L486.94 815.451C486.94 815.451 489.602 792.974 485.384 788.05C483.521 785.822 484.361 783.513 485.896 781.613C486.694 780.982 487.535 780.408 488.414 779.897C488.414 779.897 488.291 779.713 488.148 779.447C488.953 778.776 489.808 778.168 490.707 777.629C490.707 777.629 486.613 771.294 490.277 768.617C493.716 770.947 496.787 772.704 499.121 774.134C498.957 775.626 498.793 776.484 498.793 776.484L499.776 774.441C502.028 775.708 503.4 776.484 503.4 776.484C503.4 776.484 521.456 740.583 521.067 735.29C520.678 729.998 533.35 707.705 533.35 707.705C533.35 707.705 534.885 695.997 541.805 691.093C548.724 686.189 547.169 650.655 547.169 650.655C547.169 650.655 549.093 632.142 553.699 624.582C558.305 617.021 549.502 606.825 549.502 606.825ZM204.018 591.071L204.366 599.632C202.319 596.343 200.845 593.972 200.845 593.972L204.018 591.071Z" fill="url(#paint0_linear)"/>
<path d="M504.382 760.976L499.96 779.775C499.96 779.775 464.544 761.732 458.157 738.806C451.769 715.88 468.843 707.175 468.843 707.175L501.844 721.131L504.382 760.976Z" fill="white"/>
<path opacity="0.1" d="M504.382 760.976L499.96 779.775C499.96 779.775 464.544 761.732 458.157 738.806C451.769 715.88 468.843 707.175 468.843 707.175L501.844 721.131L504.382 760.976Z" fill="black"/>
<path d="M354.222 432.528C327.199 422.046 292.437 387.411 301.117 371.228C303.045 367.144 304.191 362.736 304.495 358.232C305.054 352.118 305.136 345.969 304.741 339.842C304.132 329.807 302.922 319.818 301.117 309.927C301.117 309.927 385.482 311.828 380.569 324.231C379.136 327.868 378.911 334.182 379.3 341.252C379.689 348.322 380.712 356.311 381.777 363.075C383.251 372.352 384.725 379.422 384.725 379.422C384.725 379.422 379.566 386.635 376.536 387.023C373.506 387.411 392.995 447.465 354.222 432.528Z" fill="#CF6F80"/>
<path opacity="0.1" d="M380.569 324.231C379.136 327.868 378.91 334.182 379.299 341.252C367.999 348.044 355.008 351.517 341.82 351.271C328.631 351.025 315.779 347.071 304.741 339.862C304.133 329.821 302.923 319.825 301.117 309.927C301.117 309.927 385.482 311.787 380.569 324.231Z" fill="black"/>
<path d="M413.18 279.072C413.197 286.436 412.036 293.754 409.741 300.752C404.612 316.432 394.095 329.797 380.048 338.486C366.001 347.175 349.329 350.627 332.978 348.233C316.628 345.839 301.651 337.753 290.696 325.404C279.741 313.055 273.513 297.237 273.111 280.748C273.111 280.176 273.111 279.644 273.111 279.072C272.952 269.791 274.647 260.57 278.095 251.949C281.544 243.328 286.678 235.478 293.198 228.858C299.718 222.238 307.494 216.98 316.071 213.391C324.648 209.802 333.856 207.954 343.156 207.954C352.457 207.954 361.664 209.802 370.241 213.391C378.819 216.98 386.594 222.238 393.114 228.858C399.634 235.478 404.768 243.328 408.217 251.949C411.665 260.57 413.36 269.791 413.201 279.072H413.18Z" fill="#CF6F80"/>
<path opacity="0.1" d="M354.222 432.529C327.199 422.046 292.437 387.411 301.117 371.228C303.045 367.144 304.191 362.737 304.495 358.232L341.488 388.576L364.376 407.314L381.777 363.096C383.251 372.372 384.725 379.442 384.725 379.442C384.725 379.442 379.566 386.655 376.536 387.044C373.506 387.432 392.995 447.465 354.222 432.529Z" fill="black"/>
<path d="M449.886 566.633L418.994 1084.62L378.706 1087.26L274.381 786.906L291.495 430.321L295.098 354.983L341.488 393.009L364.396 411.747L382.309 366.241L415.617 395.216L449.886 566.633Z" fill="#587EEC"/>
<path opacity="0.1" d="M391.501 1093.29C307.566 1107.59 230.693 1066.58 230.693 1066.58L231.43 1052.68C231.43 1052.68 233.334 895.162 228.053 883.086C222.771 871.01 218.656 809.771 221.645 800.371C224.634 790.972 210.733 650.022 210.733 650.022L208.481 592.808L126.061 559.481L162.911 482.814C167.888 472.065 172.169 461.009 175.726 449.712C182.134 429.81 211.88 410.255 211.88 410.255C211.88 410.255 242.383 390.721 254.441 391.456C266.499 392.192 282.303 374.17 282.303 374.17C293.972 344.48 304.536 357.925 304.536 357.925C304.536 359.335 304.536 357.925 303.963 362.318C299.868 394.91 370.169 497.894 371.172 499.713L377.866 662.486L384.642 868.476L391.501 1093.29Z" fill="black"/>
<path d="M389.248 1093.29C305.314 1107.59 228.421 1066.58 228.421 1066.58L229.179 1052.69C229.179 1052.69 231.082 895.164 225.78 883.087C220.478 871.011 216.384 809.772 219.393 800.373C222.402 790.973 208.481 650.023 208.481 650.023L206.209 592.809L123.748 559.36L160.598 482.693C165.564 471.94 169.844 460.884 173.413 449.591C179.8 429.689 209.566 410.134 209.566 410.134C209.566 410.134 240.07 390.6 252.107 391.335C264.145 392.071 279.969 374.048 279.969 374.048C291.659 344.359 304.536 357.804 304.536 357.804C304.536 359.214 303.307 359.847 303.962 362.197C312.97 393.808 367.917 497.773 368.92 499.592L375.696 662.365L382.472 868.355L389.248 1093.29Z" fill="white"/>
<path opacity="0.1" d="M366.628 504.23C357.6 500.47 309.777 445.974 309.777 445.974V433.571C308.037 429.484 297.699 431.977 289.305 434.838L292.908 359.5L297.003 362.891C305.969 394.482 365.584 502.411 366.628 504.23Z" fill="black"/>
<path d="M368.9 499.713C359.851 495.953 312.029 441.457 312.029 441.457V429.054C310.289 424.967 299.95 427.46 291.557 430.321L295.181 354.983L299.275 358.375C308.262 389.965 367.897 497.915 368.9 499.713Z" fill="white"/>
<path opacity="0.1" d="M230.693 771.499C231.819 771.499 289.059 765.491 289.059 765.491C289.059 765.491 323.718 833.515 321.446 850.066C319.173 866.617 315.058 881.268 301.117 878.673C287.176 876.078 226.087 880.716 226.087 880.716L230.693 771.499Z" fill="black"/>
<path d="M228.421 766.984C229.547 766.984 286.786 760.976 286.786 760.976C286.786 760.976 321.425 829.02 319.173 845.551C316.921 862.081 312.765 876.753 298.844 874.158C284.924 871.563 223.815 876.201 223.815 876.201L228.421 766.984Z" fill="white"/>
<path d="M271.556 735.048C271.556 735.048 324.087 763.226 325.213 771.828C326.339 780.431 298.477 768.068 292.458 766.577C288.497 765.624 284.464 764.995 280.4 764.697L240.255 765.78L271.556 735.048Z" fill="#CF6F80"/>
<path opacity="0.1" d="M351.97 507.744C355.022 507.744 357.497 505.274 357.497 502.227C357.497 499.18 355.022 496.709 351.97 496.709C348.917 496.709 346.442 499.18 346.442 502.227C346.442 505.274 348.917 507.744 351.97 507.744Z" fill="black"/>
<path d="M351.97 505.498C355.022 505.498 357.497 503.028 357.497 499.981C357.497 496.934 355.022 494.464 351.97 494.464C348.917 494.464 346.442 496.934 346.442 499.981C346.442 503.028 348.917 505.498 351.97 505.498Z" fill="#3F3D56"/>
<path opacity="0.1" d="M362.143 746.57C365.196 746.57 367.671 744.1 367.671 741.053C367.671 738.006 365.196 735.536 362.143 735.536C359.09 735.536 356.616 738.006 356.616 741.053C356.616 744.1 359.09 746.57 362.143 746.57Z" fill="black"/>
<path d="M362.143 744.302C365.196 744.302 367.671 741.832 367.671 738.785C367.671 735.738 365.196 733.268 362.143 733.268C359.09 733.268 356.616 735.738 356.616 738.785C356.616 741.832 359.09 744.302 362.143 744.302Z" fill="#3F3D56"/>
<path opacity="0.1" d="M357.477 627.158C360.53 627.158 363.004 624.688 363.004 621.641C363.004 618.594 360.53 616.124 357.477 616.124C354.424 616.124 351.95 618.594 351.95 621.641C351.95 624.688 354.424 627.158 357.477 627.158Z" fill="black"/>
<path d="M357.477 624.91C360.53 624.91 363.004 622.44 363.004 619.393C363.004 616.346 360.53 613.876 357.477 613.876C354.424 613.876 351.95 616.346 351.95 619.393C351.95 622.44 354.424 624.91 357.477 624.91Z" fill="#3F3D56"/>
<path d="M484.894 763.551C484.894 763.551 488.661 769.191 484.894 771.827C481.127 774.463 485.262 780.838 485.262 780.838C485.262 780.838 475.866 786.335 480.001 791.28C484.136 796.225 481.516 818.558 481.516 818.558L470.215 837.234C470.215 837.234 470.891 849.27 470.932 865.535C470.932 890.913 469.438 926.59 461.167 942.855L462.313 1076.31C462.313 1076.31 422.741 1090.73 389.618 1086.34L384.704 872.196C384.704 872.196 391.869 750.76 394.51 727.466C396.056 715.372 396.685 703.18 396.394 690.992C396.394 690.992 395.268 654.539 391.481 637.62C391.481 637.62 387.386 564.325 386.977 544.034C386.792 534.328 387.304 506.008 387.877 479.076C388.512 449.632 389.229 421.863 389.229 421.863L381.756 362.851C381.756 362.851 389.229 362.095 391.481 365.098C392.489 366.039 393.586 366.881 394.756 367.612C407.653 376.316 453.224 403.084 453.224 403.084C453.224 403.084 478.445 413.097 484.484 427.441C490.524 441.785 494.72 451.961 497.648 456.048C500.575 460.134 502.172 479.342 502.172 479.342C502.172 479.342 510.852 514.692 517.628 520.679C524.405 526.666 529.359 564.754 529.359 564.754L469.479 611.751C469.479 611.751 464.217 689.93 463.091 692.954C461.965 695.978 484.894 763.551 484.894 763.551Z" fill="white"/>
<path d="M487.166 763.551C487.166 763.551 490.912 769.191 487.166 771.827C483.42 774.463 487.514 780.838 487.514 780.838C487.514 780.838 478.179 786.396 482.273 791.341C486.368 796.286 483.788 818.619 483.788 818.619L472.488 837.296C472.488 837.296 473.163 849.331 473.225 865.596C473.225 890.974 471.73 926.651 463.459 942.916L464.585 1076.37C464.585 1076.37 424.952 1090.79 391.869 1086.4L386.976 872.257C386.976 872.257 394.142 750.821 396.782 727.527C398.33 715.434 398.952 703.241 398.645 691.053C398.645 691.053 397.52 654.6 393.753 637.681C393.753 637.681 389.658 564.386 389.228 544.096C389.044 534.39 389.576 506.069 390.129 479.137C390.764 449.693 391.48 421.924 391.48 421.924L381.613 362.115C381.613 362.115 391.48 362.115 393.753 365.159C394.752 366.111 395.85 366.954 397.028 367.673C409.925 376.377 455.516 403.145 455.516 403.145C455.516 403.145 480.717 413.158 486.757 427.502C492.796 441.846 496.992 452.022 499.94 456.109C502.888 460.196 504.444 479.403 504.444 479.403C504.444 479.403 513.124 514.753 519.901 520.74C526.677 526.727 531.57 564.733 531.57 564.733L471.689 611.73C471.689 611.73 466.428 689.909 465.282 692.933C464.135 695.957 487.166 763.551 487.166 763.551Z" fill="white"/>
<path opacity="0.1" d="M415.453 439.27L420.858 455.004L392.402 483.611C393.036 454.187 393.753 426.397 393.753 426.397L383.885 366.589C383.885 366.589 393.753 366.588 396.025 369.633C397.021 370.582 398.12 371.418 399.301 372.126L423.498 441.804L415.453 439.27Z" fill="black"/>
<path d="M413.18 434.757L418.606 450.491L390.15 479.098C390.784 449.653 391.501 421.884 391.501 421.884L381.613 362.075C381.613 362.075 391.501 362.075 393.753 365.12C394.757 366.066 395.854 366.908 397.028 367.633L421.246 437.291L413.18 434.757Z" fill="white"/>
<path opacity="0.1" d="M413.18 279.072C413.197 286.436 412.036 293.754 409.741 300.752C409.354 300.812 408.959 300.795 408.579 300.7C408.2 300.605 407.843 300.435 407.53 300.2C406.998 281.81 397.929 264.544 386.771 249.852C383.639 245.417 379.841 241.488 375.512 238.205C371.135 234.924 365.69 233.387 360.24 233.894C354.098 234.732 348.673 238.9 342.47 239.431C334.281 240.106 326.953 234.446 318.825 234.159C315.521 234.191 312.262 234.925 309.265 236.313C306.268 237.702 303.602 239.712 301.445 242.21C297.175 247.252 294.003 253.125 292.13 259.456C288.911 269.057 287.158 279.086 286.93 289.207C286.828 294.929 286.275 302.101 280.952 304.185C281.353 299.977 280.874 295.732 279.545 291.719C278.217 287.706 276.068 284.012 273.234 280.87L273.111 280.748C273.111 280.176 273.111 279.644 273.111 279.072C272.952 269.791 274.647 260.57 278.095 251.949C281.544 243.328 286.678 235.478 293.198 228.858C299.718 222.238 307.494 216.98 316.071 213.391C324.648 209.802 333.856 207.954 343.156 207.954C352.457 207.954 361.664 209.802 370.241 213.391C378.819 216.98 386.594 222.238 393.114 228.858C399.634 235.478 404.768 243.328 408.217 251.949C411.665 260.57 413.36 269.791 413.201 279.072H413.18Z" fill="black"/>
<path d="M372.155 168.057C361.517 163.062 349.417 162.118 338.13 165.401C332.46 167.076 327.116 169.794 321.364 171.163C309.081 174.126 294.75 170.918 284.207 178.09C278.352 182.176 274.831 188.633 271.556 194.907L263.367 210.477C258.904 218.998 254.4 227.661 252.537 237.04C250.674 246.419 251.8 256.922 257.757 264.462C262.097 269.959 268.505 273.412 273.214 278.582C276.035 281.726 278.174 285.418 279.499 289.427C280.823 293.435 281.304 297.673 280.911 301.876C286.254 299.833 286.766 292.64 286.889 286.919C287.117 276.797 288.87 266.768 292.089 257.167C293.957 250.834 297.13 244.96 301.404 239.922C303.562 237.425 306.229 235.416 309.225 234.028C312.222 232.64 315.481 231.905 318.784 231.871C326.973 232.157 334.322 237.796 342.429 237.122C348.571 236.611 354.016 232.422 360.199 231.605C365.65 231.09 371.098 232.628 375.471 235.917C379.799 239.194 383.591 243.124 386.71 247.564C397.888 262.255 406.957 279.481 407.489 297.912C409.803 299.608 413.139 297.401 414.286 294.785C415.432 292.17 415.473 289.105 416.927 286.612C418.605 283.731 421.82 282.198 424.338 280.032C430.725 274.536 432.322 265.28 432.076 256.881C431.83 248.483 430.193 239.962 431.789 231.707C432.752 226.64 434.922 221.899 436.109 216.893C437.296 211.887 437.44 206.268 434.635 201.956C430.541 195.622 421.922 194.375 414.409 193.783C405.872 193.047 398.236 193.987 392.79 186.815C390.234 183.072 387.357 179.558 384.192 176.312C383.107 175.25 372.155 168.507 372.155 168.057Z" fill="#512E4E"/>
<path opacity="0.1" d="M149.646 598.957L128.253 559.48L121.477 620.392C121.477 620.392 125.243 647.446 124.486 651.594C123.728 655.742 139.922 692.931 139.922 692.931C139.922 692.931 193.415 788.028 215.258 792.932L289.06 740.296L269.489 715.489C269.489 715.489 262.712 712.854 261.013 715.489C261.013 715.489 224.676 653.086 220.909 648.57C217.142 644.054 217.879 635.043 217.879 635.043C217.879 635.043 212.229 629.035 214.112 623.396C215.995 617.756 203.2 598.201 203.2 598.201L214.87 587.31L149.646 598.957Z" fill="black"/>
<path d="M129.378 554.986L123.728 559.482L116.951 620.394C116.951 620.394 120.718 647.448 119.961 651.596C119.203 655.744 135.417 692.933 135.417 692.933C135.417 692.933 188.89 788.03 210.733 792.934L284.555 740.298L264.964 715.491C264.964 715.491 258.187 712.856 256.488 715.491C256.488 715.491 220.15 653.088 216.384 648.572C212.617 644.056 213.374 635.045 213.374 635.045C213.374 635.045 207.724 629.037 209.607 623.398C211.491 617.758 198.675 598.203 198.675 598.203L210.344 587.312L129.378 554.986Z" fill="white"/>
<path opacity="0.1" d="M480.001 793.609C484.095 798.574 481.516 820.867 481.516 820.867L470.215 839.543C470.215 839.543 470.891 851.599 470.932 867.844L451.934 873.769C450.217 874.305 448.396 874.422 446.625 874.113C444.853 873.803 443.181 873.075 441.749 871.989C440.316 870.903 439.165 869.491 438.39 867.871C437.616 866.25 437.241 864.469 437.296 862.674L440.572 757.217L484.893 774.136C481.127 776.751 485.262 783.167 485.262 783.167C485.262 783.167 475.865 788.644 480.001 793.609Z" fill="black"/>
<path d="M482.274 791.34C486.368 796.305 483.788 818.619 483.788 818.619L472.488 837.295C472.488 837.295 473.163 849.33 473.225 865.595L453.879 871.623C452.197 872.145 450.415 872.258 448.681 871.953C446.947 871.648 445.311 870.934 443.909 869.871C442.507 868.808 441.38 867.425 440.622 865.839C439.863 864.253 439.495 862.509 439.549 860.753L442.844 754.968L487.187 771.887C483.4 774.503 487.535 780.898 487.535 780.898C487.535 780.898 478.179 786.395 482.274 791.34Z" fill="white"/>
<path d="M496.951 741.075C496.951 741.075 493.942 760.262 486.408 761.385C478.875 762.509 475.497 792.424 467.983 791.361C460.47 790.299 465.445 763.551 465.711 758.361C465.977 753.171 457.522 731.675 463.848 726.792C470.174 721.908 490.196 726.792 490.196 726.792L496.951 741.075Z" fill="#CF6F80"/>
<path opacity="0.1" d="M512.981 593.319L527.188 564.712C527.188 564.712 532.839 586.515 532.839 598.162C532.839 609.809 540.741 610.953 540.741 610.953C540.741 610.953 549.4 621.17 544.835 628.608C540.27 636.046 538.428 654.558 538.428 654.558C538.428 654.558 539.922 689.888 533.146 694.772C526.37 699.655 524.957 711.323 524.957 711.323C524.957 711.323 512.51 733.493 512.899 738.765C513.288 744.037 495.58 779.734 495.58 779.734C495.58 779.734 504.239 735.373 453.776 716.206C453.776 716.206 453.387 701.147 457.154 697.019C460.921 692.892 466.796 691.012 463.111 670.149C459.426 649.287 462.047 624.358 462.047 619.352C462.047 614.345 473.347 583.123 473.347 583.123L512.981 593.319Z" fill="black"/>
<path d="M519.123 560.626L531.529 564.712C531.529 564.712 537.2 586.515 537.2 598.162C537.2 609.809 545.102 610.953 545.102 610.953C545.102 610.953 553.762 621.17 549.196 628.608C544.631 636.046 542.809 654.559 542.809 654.559C542.809 654.559 544.304 689.888 537.527 694.772C530.751 699.655 529.236 711.323 529.236 711.323C529.236 711.323 516.81 733.493 517.199 738.765C517.588 744.037 499.859 779.734 499.859 779.734C499.859 779.734 508.539 735.373 458.056 716.206C458.056 716.206 457.687 701.147 461.454 697.019C465.221 692.892 471.096 691.012 467.411 670.149C463.726 649.287 466.347 624.358 466.347 619.352C466.347 614.345 477.647 583.123 477.647 583.123L519.123 560.626Z" fill="white"/>
<g opacity="0.1">
<path opacity="0.1" d="M424.379 275.56C421.861 277.725 418.626 279.278 416.947 282.16C415.514 284.632 415.473 287.677 414.327 290.333C413.18 292.989 409.843 295.155 407.53 293.48C406.998 275.09 397.908 257.823 386.751 243.111C383.632 238.671 379.84 234.742 375.512 231.464C371.13 228.176 365.677 226.639 360.22 227.153C354.078 227.99 348.673 232.159 342.47 232.67C334.282 233.364 326.932 227.704 318.805 227.418C315.502 227.451 312.244 228.188 309.25 229.58C306.256 230.972 303.595 232.987 301.445 235.489C297.171 240.521 293.998 246.388 292.13 252.715C288.913 262.316 287.16 272.345 286.93 282.466C286.807 288.167 286.275 295.278 280.993 297.403C281.116 298.913 281.116 300.43 280.993 301.939C286.316 299.896 286.848 292.703 286.971 286.982C287.199 276.861 288.952 266.831 292.171 257.231C294.039 250.898 297.212 245.024 301.486 239.985C303.64 237.489 306.303 235.48 309.296 234.092C312.29 232.704 315.545 231.968 318.846 231.934C327.035 232.22 334.404 237.86 342.511 237.185C348.653 236.675 354.098 232.486 360.26 231.668C365.718 231.154 371.171 232.692 375.553 235.98C379.881 239.258 383.673 243.187 386.792 247.627C397.949 262.319 407.039 279.544 407.571 297.975C409.884 299.671 413.221 297.464 414.368 294.849C415.514 292.233 415.555 289.168 416.988 286.675C418.667 283.794 421.901 282.262 424.419 280.096C430.807 274.599 432.404 265.343 432.158 256.945C432.158 256.679 432.158 256.413 432.158 256.168C431.769 263.442 429.824 270.86 424.379 275.56Z" fill="black"/>
<path opacity="0.1" d="M273.255 274.109C268.546 268.939 262.118 265.486 257.798 260.01C254.161 255.162 252.084 249.326 251.841 243.275C251.197 250.837 253.313 258.377 257.798 264.505C262.118 270.001 268.546 273.455 273.255 278.624C277.775 283.681 280.49 290.091 280.973 296.851C281.286 292.737 280.764 288.602 279.438 284.694C278.112 280.786 276.009 277.186 273.255 274.109Z" fill="black"/>
<path opacity="0.1" d="M436.15 212.42C434.942 217.426 432.792 222.187 431.81 227.234C431.228 230.606 431.015 234.032 431.175 237.451C431.243 235.503 431.456 233.564 431.81 231.648C432.792 226.58 434.942 221.839 436.15 216.833C436.854 214.072 437.082 211.211 436.825 208.374C436.698 209.737 436.472 211.089 436.15 212.42Z" fill="black"/>
</g>
<path fill-rule="evenodd" clip-rule="evenodd" d="M693.997 290.832C771.108 211.567 963.901 350.272 693.997 528.626C424.094 350.289 616.887 211.567 693.997 290.832ZM611.179 359.077L590.836 394.491L582.164 389.509L605.171 349.461C608.856 343.047 618.525 344.641 619.957 351.899L636.064 433.586L652.095 392.116C653.286 389.033 656.251 387 659.557 387H678.5H776.996C778.955 382.302 783.592 379 789 379C796.18 379 802 384.82 802 392C802 399.18 796.18 405 789 405C783.592 405 778.955 401.698 776.996 397H678.5H660.928L642.9 443.636C640.01 451.114 629.14 450.165 627.59 442.3L611.179 359.077Z" fill="#EC5863"/>
</g>
<defs>
<linearGradient id="paint0_linear" x1="333.994" y1="1414.36" x2="333.994" y2="157.002" gradientUnits="userSpaceOnUse">
<stop stop-color="#808080" stop-opacity="0.25"/>
<stop offset="0.54" stop-color="#808080" stop-opacity="0.12"/>
<stop offset="1" stop-color="#808080" stop-opacity="0.1"/>
</linearGradient>
</defs>
</svg>
