<svg width="15" height="16" viewBox="0 0 15 16" fill="none" xmlns="http://www.w3.org/2000/svg">
<path d="M7.46327 0C3.34181 0 0 3.58214 0 8C0 12.4179 3.34181 16 7.46327 16C11.5847 16 14.9265 12.4179 14.9265 8C14.9265 3.58214 11.5847 0 7.46327 0ZM7.46327 14.6429C4.0415 14.6429 1.26609 11.6679 1.26609 8C1.26609 4.33214 4.0415 1.35714 7.46327 1.35714C10.885 1.35714 13.6605 4.33214 13.6605 8C13.6605 11.6679 10.885 14.6429 7.46327 14.6429Z" fill="black" fill-opacity="0.5"/>
<path d="M10.3736 10.2607L7.99805 8.41964V4C7.99805 3.92143 7.93808 3.85714 7.86478 3.85714H7.06348C6.99018 3.85714 6.93021 3.92143 6.93021 4V8.91785C6.93021 8.96428 6.9502 9.00714 6.98518 9.03393L9.7406 11.1875C9.80057 11.2339 9.88386 11.2196 9.92718 11.1571L10.4036 10.4607C10.4469 10.3946 10.4336 10.3054 10.3736 10.2607Z" fill="black" fill-opacity="0.5"/>
</svg>
